<svg width="100" height="100" viewBox="0 0 100 100" fill="none" xmlns="http://www.w3.org/2000/svg">
<circle cx="50" cy="50" r="50" fill="#D9D9D9"/>
<path d="M26.1278 73H8.21875V26.4545H25.946C30.7339 26.4545 34.8703 27.3864 38.3551 29.25C41.8551 31.0985 44.5521 33.7651 46.446 37.25C48.3551 40.7197 49.3097 44.8788 49.3097 49.7273C49.3097 54.5758 48.3627 58.7424 46.4688 62.2273C44.5748 65.697 41.893 68.3636 38.4233 70.2273C34.9536 72.0758 30.8551 73 26.1278 73ZM20.8551 62.2727H25.6733C27.9763 62.2727 29.9384 61.9015 31.5597 61.1591C33.196 60.4167 34.4384 59.1364 35.2869 57.3182C36.1506 55.5 36.5824 52.9697 36.5824 49.7273C36.5824 46.4848 36.143 43.9545 35.2642 42.1364C34.4006 40.3182 33.1278 39.0379 31.446 38.2955C29.7794 37.553 27.7339 37.1818 25.3097 37.1818H20.8551V62.2727ZM80.2472 41C80.1259 39.4848 79.5578 38.303 78.5426 37.4545C77.5426 36.6061 76.0199 36.1818 73.9744 36.1818C72.6714 36.1818 71.6032 36.3409 70.7699 36.6591C69.9517 36.9621 69.3456 37.3788 68.9517 37.9091C68.5578 38.4394 68.3532 39.0455 68.3381 39.7273C68.3078 40.2879 68.4063 40.7955 68.6335 41.25C68.8759 41.6894 69.2547 42.0909 69.7699 42.4545C70.285 42.803 70.9441 43.1212 71.7472 43.4091C72.5502 43.697 73.5047 43.9545 74.6108 44.1818L78.429 45C81.0047 45.5455 83.2093 46.2652 85.0426 47.1591C86.8759 48.053 88.3759 49.1061 89.5426 50.3182C90.7093 51.5152 91.5653 52.8636 92.1108 54.3636C92.6714 55.8636 92.9593 57.5 92.9744 59.2727C92.9593 62.3333 92.1941 64.9242 90.679 67.0455C89.1638 69.1667 86.9972 70.7803 84.179 71.8864C81.3759 72.9924 78.0047 73.5455 74.0653 73.5455C70.0199 73.5455 66.4896 72.947 63.4744 71.75C60.4744 70.553 58.1411 68.7121 56.4744 66.2273C54.8229 63.7273 53.9896 60.5303 53.9744 56.6364H65.9744C66.0502 58.0606 66.4063 59.2576 67.0426 60.2273C67.679 61.197 68.5729 61.9318 69.7244 62.4318C70.8911 62.9318 72.2775 63.1818 73.8835 63.1818C75.232 63.1818 76.3608 63.0152 77.2699 62.6818C78.179 62.3485 78.8684 61.8864 79.3381 61.2955C79.8078 60.7045 80.0502 60.0303 80.0653 59.2727C80.0502 58.5606 79.8153 57.9394 79.3608 57.4091C78.9214 56.8636 78.1941 56.3788 77.179 55.9545C76.1638 55.5152 74.7926 55.1061 73.0653 54.7273L68.429 53.7273C64.3078 52.8333 61.0578 51.3409 58.679 49.25C56.3153 47.1439 55.1411 44.2727 55.1562 40.6364C55.1411 37.6818 55.929 35.0985 57.5199 32.8864C59.1259 30.6591 61.3456 28.9242 64.179 27.6818C67.0275 26.4394 70.2926 25.8182 73.9744 25.8182C77.732 25.8182 80.982 26.447 83.7244 27.7045C86.4669 28.9621 88.5805 30.7348 90.0653 33.0227C91.5653 35.2955 92.3229 37.9545 92.3381 41H80.2472Z" fill="black"/>
</svg>
